<mxfile host="app.diagrams.net" modified="2023-09-15T07:07:46.812Z" agent="Mozilla/5.0 (Windows NT 10.0; Win64; x64) AppleWebKit/537.36 (KHTML, like Gecko) Chrome/116.0.0.0 Safari/537.36 Edg/116.0.1938.69" etag="o2681ZbE7lCYnf9lSjH_" version="21.7.5" type="github">
  <diagram id="prtHgNgQTEPvFCAcTncT" name="Page-1">
    <mxGraphModel dx="1379" dy="764" grid="1" gridSize="10" guides="1" tooltips="1" connect="1" arrows="1" fold="1" page="1" pageScale="1" pageWidth="827" pageHeight="1169" math="0" shadow="0">
      <root>
        <mxCell id="0" />
        <mxCell id="1" parent="0" />
        <mxCell id="x2MY3SJJRR_8M5Zhqf7X-1" value="&lt;font style=&quot;font-size: 24px;&quot;&gt;&lt;b&gt;用户&lt;/b&gt;&lt;/font&gt;" style="rounded=0;whiteSpace=wrap;html=1;" vertex="1" parent="1">
          <mxGeometry x="240" y="180" width="380" height="60" as="geometry" />
        </mxCell>
        <mxCell id="x2MY3SJJRR_8M5Zhqf7X-33" value="" style="group;fontStyle=1" vertex="1" connectable="0" parent="1">
          <mxGeometry x="240" y="240" width="380" height="50" as="geometry" />
        </mxCell>
        <mxCell id="x2MY3SJJRR_8M5Zhqf7X-5" value="" style="shape=table;startSize=0;container=1;collapsible=0;childLayout=tableLayout;fontSize=16;fontStyle=1" vertex="1" parent="x2MY3SJJRR_8M5Zhqf7X-33">
          <mxGeometry width="290" height="50" as="geometry" />
        </mxCell>
        <mxCell id="x2MY3SJJRR_8M5Zhqf7X-6" value="" style="shape=tableRow;horizontal=0;startSize=0;swimlaneHead=0;swimlaneBody=0;strokeColor=inherit;top=0;left=0;bottom=0;right=0;collapsible=0;dropTarget=0;fillColor=none;points=[[0,0.5],[1,0.5]];portConstraint=eastwest;fontSize=16;fontStyle=1" vertex="1" parent="x2MY3SJJRR_8M5Zhqf7X-5">
          <mxGeometry width="290" height="50" as="geometry" />
        </mxCell>
        <mxCell id="x2MY3SJJRR_8M5Zhqf7X-7" value="&lt;font style=&quot;font-size: 18px;&quot;&gt;创建&lt;/font&gt;" style="shape=partialRectangle;html=1;whiteSpace=wrap;connectable=0;strokeColor=inherit;overflow=hidden;fillColor=none;top=0;left=0;bottom=0;right=0;pointerEvents=1;fontSize=16;fontStyle=1" vertex="1" parent="x2MY3SJJRR_8M5Zhqf7X-6">
          <mxGeometry width="97" height="50" as="geometry">
            <mxRectangle width="97" height="50" as="alternateBounds" />
          </mxGeometry>
        </mxCell>
        <mxCell id="x2MY3SJJRR_8M5Zhqf7X-8" value="修改" style="shape=partialRectangle;html=1;whiteSpace=wrap;connectable=0;strokeColor=inherit;overflow=hidden;fillColor=none;top=0;left=0;bottom=0;right=0;pointerEvents=1;fontSize=16;fontStyle=1" vertex="1" parent="x2MY3SJJRR_8M5Zhqf7X-6">
          <mxGeometry x="97" width="96" height="50" as="geometry">
            <mxRectangle width="96" height="50" as="alternateBounds" />
          </mxGeometry>
        </mxCell>
        <mxCell id="x2MY3SJJRR_8M5Zhqf7X-9" value="删除" style="shape=partialRectangle;html=1;whiteSpace=wrap;connectable=0;strokeColor=inherit;overflow=hidden;fillColor=none;top=0;left=0;bottom=0;right=0;pointerEvents=1;fontSize=16;fontStyle=1" vertex="1" parent="x2MY3SJJRR_8M5Zhqf7X-6">
          <mxGeometry x="193" width="97" height="50" as="geometry">
            <mxRectangle width="97" height="50" as="alternateBounds" />
          </mxGeometry>
        </mxCell>
        <mxCell id="x2MY3SJJRR_8M5Zhqf7X-32" value="&lt;font style=&quot;font-size: 18px;&quot;&gt;查询&lt;/font&gt;" style="whiteSpace=wrap;html=1;fontStyle=1" vertex="1" parent="x2MY3SJJRR_8M5Zhqf7X-33">
          <mxGeometry x="290" width="90" height="50" as="geometry" />
        </mxCell>
      </root>
    </mxGraphModel>
  </diagram>
</mxfile>
